<svg id="text" xmlns="http://www.w3.org/2000/svg" viewBox="0 0 601.79 354.18"><defs><style>.cls-1,.cls-2,.cls-20{fill:#f7941e;}.cls-1,.cls-11,.cls-15,.cls-18,.cls-19,.cls-6{stroke:#f7941e;stroke-miterlimit:10;}.cls-1{stroke-width:3px;}.cls-3{font-size:11.66px;font-family:Action Comics;}.cls-11,.cls-15,.cls-18,.cls-21,.cls-3,.cls-6{fill:#231f20;}.cls-4{letter-spacing:-1px;}.cls-5{letter-spacing:-3px;}.cls-6{font-size:19.38px;}.cls-11,.cls-15,.cls-6{font-family:Action Comcs Black;}.cls-10,.cls-7,.cls-8,.cls-9{font-size:30.68px;}.cls-7{letter-spacing:-12px;}.cls-8{letter-spacing:-13px;}.cls-17,.cls-9{letter-spacing:-2px;}.cls-11{font-size:34.07px;}.cls-12{letter-spacing:-19px;}.cls-13{letter-spacing:-14px;}.cls-14{letter-spacing:-7px;}.cls-15{font-size:35.52px;}.cls-15,.cls-18,.cls-19{stroke-width:2px;}.cls-16{letter-spacing:-6px;}.cls-20{font-size:12px;font-family:BrandonText Regular;}</style></defs><title>dsat-master</title><line id="horizon" class="cls-1" x1="0.01" y1="261.12" x2="601.78" y2="259.06"/><path id="sun" class="cls-2" d="M459.12,264.58a182,182,0,1,0-328.65,0H459.12Z" transform="translate(0.01 -4.12)"/><g id="reflections"><path class="cls-2" d="M229.17,287c31.15-3.94,85.09-7.94,99.83-7.4,9.95,0.37,31.19,2.16,51.07,3.89h0.19c35.24-1.5,44.49.17,67,1.14,0.9-1.53,1.8-3.06,2.69-4.63-10.13-1.62-20.26-1.46-30.71-1.72-12.35-.31-24.5-2.44-36.81-3.28s-24.9-.93-37.35-0.69c-24.87.49-49.26,2.85-73.92,5.28A544.55,544.55,0,0,1,198.5,282c-20.19-.7-40.32-0.74-60.44-2.19,0.51,1,1.17,2.18,2,3.61,4.24,0.42,8.47,1,12.69,1.56C178,284.17,200.17,290.67,229.17,287Z" transform="translate(0.01 -4.12)"/><path class="cls-2" d="M176.85,298.38l3.6,0.37c15.27,1.51,30.57,3.13,45.9,4,14.32,0.85,28.45,1.52,42.18-3.1l2.62-.88C239.71,299.09,208.28,298.57,176.85,298.38Z" transform="translate(0.01 -4.12)"/><path class="cls-2" d="M287.74,315.1c20.74,0.17,40.22-6.13,60.51-9.36,27.49-4.37,54.36.4,81,6.49,1.1-1.29,2.19-2.61,3.26-3.95-6.46-.59-12.9-1.62-19.34-2.6-23.44-3.55-46.83-9.88-70.72-9.3-11.93.29-23.43,3.81-34.89,6.78-10.94,2.84-21.43,8.1-32.6,9.84a94.47,94.47,0,0,1-14.65,1C269.5,314.29,278.61,315,287.74,315.1Z" transform="translate(0.01 -4.12)"/><path class="cls-2" d="M334.81,348.79c-19.38.86-38.76,1.35-58.14,2.15-13.77.57-27.52,1.59-41.29,2.1a240.87,240.87,0,0,0,51.37,5.26c28,0,51.5-3.62,71.56-10.8Q346.57,348.28,334.81,348.79Z" transform="translate(0.01 -4.12)"/><path class="cls-2" d="M372.63,324.64c14.36-.33,28.62.78,42.9,1.72l0.71-.63c-6.74-1.45-13.51-2.76-20.34-3.8-20-3-39-1.94-58.74,2.31l-4.85,1.05C345.7,324.68,359.11,325,372.63,324.64Z" transform="translate(0.01 -4.12)"/><path class="cls-2" d="M402.87,332.22c-13-.89-25.93-0.58-39-0.55-11.41,0-22.84-.25-34.24.36-11.65.63-22.85,3.25-34.38,4.76-22.42,2.94-45.27,2.89-67.83,4q-10.13.5-20.25,1.08c10.2,0.52,20.41.83,30.62,0.74,19.73-.19,39.44-2,59.15-2.71,36.68-1.38,73.43-2.06,109.9-6.4l1.16-.9Z" transform="translate(0.01 -4.12)"/><path class="cls-2" d="M235.38,332.5c10.79-2.33,32.28,0,47.9-1.42a67.46,67.46,0,0,1-7.81-.28c-38.13-5.3-42.16-1.21-63.29-1.64-11-.22-22,0.45-32.93-1,3.55,2.62,7.37,5.2,11.46,7.7C205.89,335,220.5,335.72,235.38,332.5Z" transform="translate(0.01 -4.12)"/><path class="cls-2" d="M224.65,314.62c10.37-.18,20.75-0.75,31.12-0.66-5.27-.18-10.53-0.61-15.77-1.07-12.57-1.1-25.12-2.38-37.66-3.74-12.1-1.31-24.23-2.5-36.31-4-4.48-.56-8.94-1.21-13.41-1.83q1.9,2.27,4.07,4.64A293.6,293.6,0,0,0,224.65,314.62Z" transform="translate(0.01 -4.12)"/></g><g id="yippiegirl"><path d="M171.79,169.46h-8.08a33,33,0,0,1-1-3.26,12.81,12.81,0,0,0-.9-2.44c-1.68-2.72-1.49-5.65-1-8.56,0.28-1.7,1.13-3.32,1.46-5,0.26-1.31,0-2.71.2-4a6.26,6.26,0,0,1,.93-1.81H165a6.27,6.27,0,0,0,2.14.59,4.18,4.18,0,0,1,3.18,1.32,4.41,4.41,0,0,1,.47,1.76l-1.62-.72,0.55,0.52c-1.18.9-2.38,1.8-3.54,2.72a0.86,0.86,0,0,0,0,.56c0.25,3.39.5,6.78,0.8,10.16a3.21,3.21,0,0,0,.52,1.28c1.3,2.14,2.65,4.27,4,6.41A5.73,5.73,0,0,0,171.79,169.46Z" transform="translate(0.01 -4.12)"/><path d="M222.69,184.55c0,0.93-2.31,3.22-3.65,3.23-3,0-5.48,1.38-8.05,2.54a13.17,13.17,0,0,1-8.4,1.11c-1.61-.33-3.4.34-5.11,0.33a36.53,36.53,0,0,1-5-.52,12.81,12.81,0,0,1-1.87-.73c-2.19-.71-2.4-0.52-3.8,1.26a12.9,12.9,0,0,1-3,2.41,2.34,2.34,0,0,0-1.23,2.59,4.34,4.34,0,0,0,1.79,1.9c2,1.33,4.18.39,6.31,0.23,2.47-.17,4.95-0.27,7.42-0.26,1.35,0,3.59,2.36,3.93,3.64a27.21,27.21,0,0,0,1.22,3c0.82,2,1.57,4,2.43,6,0.42,1,1,1.87,1.52,2.79l0.61,0.14c-0.65.55-1.27,1.14-2,1.62a1.48,1.48,0,0,0-.52,2.1,28,28,0,0,1,1.53,4.69c0.48,2.2,2.48,3.1,3.74,4.6a19.07,19.07,0,0,0,3.34,2.65,5.19,5.19,0,0,1,2.44,4.71,2.79,2.79,0,0,1-1.09,1.85c-0.28.19-1.22-.32-1.69-0.72-1.56-1.35-2.94-2.91-4.58-4.16a7.33,7.33,0,0,0-3.32-1.31c-1.28-.17-1.72-0.63-1.55-1.86a7.29,7.29,0,0,0-1.62-6.19c-0.51-.58-1.2-1-1.75-1.53a7.74,7.74,0,0,1-1.46-1.72c-0.8-1.52-1.39-3.15-2.22-4.66s-1.87-2.82-2.75-4.25-1.85-1.66-3-.45c-0.94,1-1.7,2.09-2.7,3s-2.35,1.73-3.51,2.62a5.4,5.4,0,0,0-1.46,1.27,5.64,5.64,0,0,1-3.52,2.81,1.44,1.44,0,0,0-1.14,1.54,8.75,8.75,0,0,1-1.22,2.59,5.6,5.6,0,0,0,1.29.62c2.11,0.47,4.23,1,6.38,1.24a4.25,4.25,0,0,0,2.54-.6c1.16-.71,2.06-0.52,2.58.55a2.85,2.85,0,0,0,3.14,1.66,5.18,5.18,0,0,1,2.81.34c0.34,0.21-.05,1.62-0.11,2.49a5.5,5.5,0,0,1-.05.77c-0.5,2.64-1.11,2.84-3.17,1.14a4.48,4.48,0,0,0-3.34-1.33,4.51,4.51,0,0,1-2.39-.52c-2.8-1.49-5.72-1.3-8.74-1.06a43.45,43.45,0,0,1-15-1.54c-1.14-.31-2.3-0.6-3.45-0.82a2.24,2.24,0,0,1-2-2.22c-0.21-2.21-.16-4.28,1.81-5.89a38.32,38.32,0,0,0,5.68-5.22c1.23-1.49,1.5-3.69,3.12-5a1.29,1.29,0,0,0-.15-0.73c-0.82-2.48-1.61-5-2.5-7.45a3.22,3.22,0,0,0-1.1-1.35c-1.14-.87-2.36-1.61-3.5-2.46-0.9-.66-1.09-1.33.13-1.93a2.11,2.11,0,0,0,1-1.06c1.66-5.06,3.23-10.15,3.12-15.55a16.77,16.77,0,0,0-2.29-7.94h8.08a3.43,3.43,0,0,0,1.89.87,4.84,4.84,0,0,1,2,1.22,10,10,0,0,1,1.23,1.57c0.53-1.42.78-2.52,0-3.67h15.5c1.22,1.81,1,4.12,1.52,6.16,0.89,3.24-.31,5.49-3.77,7.28a9.65,9.65,0,0,0,1.46.75c4.68,1.28,9.25,3.18,14.16,3.19a80.74,80.74,0,0,0,9.77-1,1.13,1.13,0,0,0,1-1.39c0-1.65,1.14-2.64,2.92-2.64C220.83,181.79,222.68,183.4,222.69,184.55Z" transform="translate(0.01 -4.12)"/><path d="M192.35,169.46c-0.17-.18-0.68-0.93-0.9-1.1a1.07,1.07,0,0,1-.22-0.85c0.24-1.77.57-3.53,0.77-5.31a3.27,3.27,0,0,0-2-3.68l1,2.7-0.48.28c-0.61-.85-1.3-1.67-1.82-2.57-0.78-1.36-1.3-1.64-2.94-1.33a3.41,3.41,0,0,1-1.14,4.3,1.72,1.72,0,0,1-1.39.08,1.6,1.6,0,0,1-.35-1.21,17.57,17.57,0,0,1,.28-2.08,7.59,7.59,0,0,0-.93,3.52c0.22,2-.79,2.57-2.34,2.94a9.6,9.6,0,0,0-1.48.44c-1.21.5-1.8,2.83-1.42,3.86h15.39Z" transform="translate(0.01 -4.12)"/></g><text class="cls-3" transform="translate(203.94 76.81)"><tspan class="cls-4">D</tspan><tspan x="12.82" y="0">R</tspan><tspan class="cls-5" x="30.07" y="0">U</tspan><tspan class="cls-4" x="43.44" y="0">P</tspan><tspan x="58.59" y="0">AL 6</tspan></text><text class="cls-6" transform="translate(157.05 123.16)"> <tspan class="cls-7" x="7.75" y="0">S</tspan><tspan class="cls-7" x="46.62" y="0">U</tspan><tspan class="cls-8" x="76.36" y="0">N</tspan><tspan class="cls-7" x="112.07" y="0">S</tspan><tspan class="cls-9" x="150.95" y="0">E</tspan><tspan class="cls-10" x="184.46" y="0">T </tspan></text><text class="cls-11" transform="translate(212.46 179.02) rotate(-6.18)"><tspan class="cls-5">A</tspan><tspan class="cls-5" x="34.7" y="0">C</tspan><tspan class="cls-12" x="68.38" y="0">T</tspan><tspan class="cls-13" x="92.4" y="0">I</tspan><tspan class="cls-14" x="109.79" y="0">O</tspan><tspan x="145.44" y="0">N</tspan></text><text class="cls-15" transform="translate(251.06 221.31) rotate(2.06)"><tspan class="cls-13">T</tspan><tspan class="cls-16" x="30.6" y="0">E</tspan><tspan class="cls-17" x="65.86" y="0">A</tspan><tspan x="102.74" y="0">M</tspan></text><path id="exclamation_point" data-name="exclamation point" class="cls-18" d="M422,176.55c0.66,0,24.84,3.21,24.84,3.21l-12.42,49.67H419.35Z" transform="translate(0.01 -4.12)"/><g id="Drupal_logo" data-name="Drupal logo"><path class="cls-19" d="M428.9,225l4.89,5.82c1.74,2.06,3.52,4.08,5.21,6.18,3.32,4.13,5.41,8.77,5.16,14.18a19.68,19.68,0,0,1-4,11.21,18.56,18.56,0,0,1-5.75,5,18,18,0,0,1-10.53,2.41,19,19,0,0,1-14.21-7.56,18.45,18.45,0,0,1-3.81-13.49,18.69,18.69,0,0,1,8-13.77,31.25,31.25,0,0,1,7.45-3.6c1.52-.56,3-1.1,4.52-1.75a4.63,4.63,0,0,0,2.75-3.47C428.66,225.79,428.78,225.44,428.9,225Zm-6.82,23.82-1.32-.17c-2.91-.34-6.31,1.11-6.65,5a5.8,5.8,0,0,0,4.78,6.19,10.68,10.68,0,0,0,5.1-.43c1.58-.55,3.13-1.21,4.69-1.81,1-.37,1.25-0.23,1.63.74s0.67,1.81,1,2.71a3.8,3.8,0,0,0,4.16,2.65,7.3,7.3,0,0,0,2.8-1.15c1.91-1.25,3.47-3.75,2.77-6.17a2.78,2.78,0,0,0-1.95-2.06,6.66,6.66,0,0,0-4.1.3c-1.37.45-2.68,1.1-4,1.67a1.09,1.09,0,0,1-1.62-.34c-0.56-1-1.14-1.9-1.73-2.83A10.18,10.18,0,0,0,422.08,248.81Zm8.2,17.27a1.31,1.31,0,0,0-.34-0.15c-0.31,0-.62,0-0.93,0a10.32,10.32,0,0,1-5.51-1.1c-1-.52-1.84-1.18-2.81-1.69a2.25,2.25,0,0,0-1,.07,2.61,2.61,0,0,0,.3.83,8.26,8.26,0,0,0,4.39,2.41A9.13,9.13,0,0,0,430.29,266.08Zm-5.37-3.85c0.37,0,.59.08,0.8,0.09,1.09,0,2.18,0,3,.87,0.36,0.37.64,0,.6-0.35a1.72,1.72,0,0,0-.44-1C428,261,426.22,261.11,424.92,262.23Z" transform="translate(0.01 -4.12)"/></g><text class="cls-20" transform="translate(134.23 271.08)">ww<tspan x="17.95" y="0">w</tspan><tspan x="26.32" y="0">.messageagen</tspan><tspan x="97.99" y="0">c</tspan><tspan x="103.58" y="0">y</tspan><tspan x="108.77" y="0">.</tspan><tspan x="111.25" y="0">c</tspan><tspan x="116.55" y="0">om</tspan></text><g id="ma_logo-2" data-name="ma logo"><path class="cls-21" d="M223,243l-2-2.16,0.3-.26,4.32-3.74a0.15,0.15,0,0,0,0-.2l-2.32-5.51-0.06-.15,2.72-1.08L226,230l3.18,7.44a0.14,0.14,0,0,1,0,.2l-6.13,5.26Z" transform="translate(0.01 -4.12)"/><path class="cls-21" d="M229.39,232.41l2.71-1.08,0.05,0.1,3.2,7.47a0.14,0.14,0,0,1,0,.19l-6.13,5.26-0.1.08-1.93-2.16,0.54-.47,4-3.53a0.15,0.15,0,0,0,.05-0.21l-2.33-5.54Z" transform="translate(0.01 -4.12)"/></g></svg>