<svg id="back-arrow" data-name="Layer 1" xmlns="http://www.w3.org/2000/svg" viewBox="0 0 512 512"><defs><style>.cls-1{fill:#6b6b6b;}</style></defs><title>back-arrow-grey</title><path class="cls-1" d="M256,1h2c3.9,4.23,7.67,8.57,11.71,12.66,10.52,10.65,21.15,21.18,32.66,32.68L123.71,225H513v64H122.39L302.5,469.13c-1.84,1.22-3.59,2-4.87,3.28q-18.46,18.3-36.77,36.76A33.25,33.25,0,0,0,258,513h-2a32.84,32.84,0,0,0-2.87-3.82Q129,385,4.82,260.87A32.83,32.83,0,0,0,1,258q0-1,0-2a32.85,32.85,0,0,0,3.82-2.87Q129,129,253.13,4.82A32.83,32.83,0,0,0,256,1Z"/></svg>