<?xml version="1.0" encoding="utf-8"?>
<!-- Generator: Adobe Illustrator 21.0.2, SVG Export Plug-In . SVG Version: 6.00 Build 0)  -->
<svg version="1.1" id="Layer_1" xmlns="http://www.w3.org/2000/svg" xmlns:xlink="http://www.w3.org/1999/xlink" x="0px" y="0px"
	 viewBox="0 0 50 50" style="enable-background:new 0 0 50 50;" xml:space="preserve">
<style type="text/css">
	.st0{fill:#878787;}
</style>
<path class="st0" d="M11,33c-0.6,0-1,0.4-1,1v6.1c0,0.6,0.4,1,1,1h28c0.6,0,1-0.4,1-1V34c0-0.6-0.4-1-1-1s-1,0.4-1,1v5.1H12V34
	C12,33.4,11.6,33,11,33z"/>
<path class="st0" d="M25,9.1c-0.6,0-1,0.4-1,1v21.5l-6.3-6.1c-0.4-0.4-1-0.4-1.4,0c-0.4,0.4-0.4,1,0,1.4l8,7.8c0,0,0,0,0,0l0,0
	c0,0,0.1,0.1,0.1,0.1c0.1,0,0.1,0.1,0.2,0.1c0.1,0,0.2,0.1,0.4,0.1s0.3,0,0.4-0.1c0.1,0,0.1-0.1,0.2-0.1c0,0,0.1,0,0.1-0.1l8-7.8
	c0.4-0.4,0.4-1,0-1.4c-0.4-0.4-1-0.4-1.4,0L26,31.6V10.1C26,9.6,25.6,9.1,25,9.1z"/>
</svg>
