<?xml version="1.0" encoding="utf-8"?>
<!-- Generator: Adobe Illustrator 21.0.2, SVG Export Plug-In . SVG Version: 6.00 Build 0)  -->
<svg version="1.1" id="Layer_1" xmlns="http://www.w3.org/2000/svg" xmlns:xlink="http://www.w3.org/1999/xlink" x="0px" y="0px"
	 viewBox="0 0 626 395" style="enable-background:new 0 0 626 395;" xml:space="preserve">
<style type="text/css">
	.st0{fill:#6B6B6B;}
</style>
<path class="st0" d="M173,0c0,52.9-0.1,105.8-0.1,158.7c0,13.6,0,13.6-13.4,13.6c-51,0-102,0-153,0c-2.2,0-4.3,0.2-6.5,0.3
	C0,115.2,0,57.6,0,0H173z"/>
<path class="st0" d="M394.8,0c0.1,13.2,0.2,26.4,0.2,39.5c0,42.2,0,84.5,0,126.7c0,2,0,4,0,6.8h-6.2c-53.6,0-107.2-0.1-160.7,0.1
	c-5,0-6.4-1.3-6.4-6.4c0.2-53.4,0.1-106.8,0.1-160.2c0-2.2-0.2-4.3-0.3-6.5L394.8,0z"/>
<path class="st0" d="M626,173c-2.5-0.1-5-0.3-7.5-0.3c-52.9,0-105.9,0-158.8,0c-6.7,0-6.7,0-6.7-6.9C453,110.5,453,55.3,453,0h173
	V173z"/>
<path class="st0" d="M0,222l150,0.1h15.5c7.4,0,7.4,0,7.4,7.2c0,42.8,0,85.7,0,128.5c0,10.2,0,20.3,0,30.5c0,6.6,0,6.6-6.4,6.6H7
	c-2.3,0-4.7,0.1-7,0.1V222z"/>
<path class="st0" d="M626,395l-165.8-0.1c-7.1,0-7.1,0-7.1-6.9c0-53.1,0-106.2,0-159.4c0-6.5,0-6.5,6.6-6.5H620c2,0,4-0.1,6-0.1V395
	z"/>
<path class="st0" d="M395,395H222.8c-0.1-2-0.3-3.9-0.3-5.8c0-53.5,0-107-0.1-160.5c0-4.6,0.9-6.3,6-6.3
	c53.8,0.2,107.6,0.1,161.5,0.1c1.6,0,3.3,0.2,5.2,0.2L395,395z"/>
</svg>
