<svg id="thumbnails-icon" data-name="thumbnails" xmlns="http://www.w3.org/2000/svg" viewBox="0 0 626 397.2">
	<title>icon-thumbnails</title>
	<g>
		<path class="cls-1" d="M0,0,150,.13h15.5c7.41,0,7.41,0,7.41,7.18v159c0,6.61,0,6.62-6.41,6.62H7c-2.33,0-4.66.06-7,.1Z" transform="translate(0 0.2)"/>
		<path class="cls-1" d="M626,172.8l-165.84-.11c-7.09,0-7.09,0-7.09-6.94V6.4c0-6.46,0-6.48,6.59-6.48H620c2,0,4-.08,6-.12Z" transform="translate(0 0.2)"/>
		<path class="cls-1" d="M395,172.8H222.8c-.11-2-.32-3.9-.32-5.84q0-80.24-.11-160.47c0-4.61.93-6.3,6-6.29C282.19.38,336,.31,389.84.33c1.63,0,3.26.16,5.2.25Z" transform="translate(0 0.2)"/>
		<path class="cls-1" d="M0,224l150,.13h15.5c7.41,0,7.41,0,7.41,7.18v159c0,6.61,0,6.62-6.41,6.62H7c-2.33,0-4.66.06-7,.1Z" transform="translate(0 0.2)"/>
		<path class="cls-1" d="M626,396.8l-165.84-.11c-7.09,0-7.09,0-7.09-6.94V230.4c0-6.46,0-6.48,6.59-6.48H620c2,0,4-.08,6-.12Z" transform="translate(0 0.2)"/>
		<path class="cls-1" d="M395,396.8H222.8c-.11-2-.32-3.9-.32-5.84q0-80.23-.11-160.47c0-4.61.93-6.3,6-6.29,53.82.18,107.65.11,161.47.13,1.63,0,3.26.16,5.2.25Z" transform="translate(0 0.2)"/>
	</g>
</svg>
