<?xml version="1.0" encoding="utf-8"?>
<!-- Generator: Adobe Illustrator 23.0.2, SVG Export Plug-In . SVG Version: 6.00 Build 0)  -->
<svg version="1.1" id="thumbnails-icon" xmlns="http://www.w3.org/2000/svg" xmlns:xlink="http://www.w3.org/1999/xlink" x="0px"
	 y="0px" viewBox="0 0 173 173" style="enable-background:new 0 0 173 173;" xml:space="preserve">
<g>
	<path d="M-447,203l150,0.1h15.5c7.4,0,7.4,0,7.4,7.2c0,42.8,0,85.7,0,128.5c0,10.2,0,20.3,0,30.5c0,6.6,0,6.6-6.4,6.6H-440
		c-2.3,0-4.7,0.1-7,0.1V203z"/>
	<path d="M179,375.8l-165.8-0.1c-7.1,0-7.1,0-7.1-6.9c0-53.1,0-106.2,0-159.3c0-6.5,0-6.5,6.6-6.5H173c2,0,4-0.1,6-0.1V375.8z"/>
	<path d="M-52,375.8h-172.2c-0.1-2-0.3-3.9-0.3-5.8c0-53.5,0-107-0.1-160.5c0-4.6,0.9-6.3,6-6.3c53.8,0.2,107.6,0.1,161.5,0.1
		c1.6,0,3.3,0.2,5.2,0.2L-52,375.8z"/>
	<path d="M-447,427l150,0.1h15.5c7.4,0,7.4,0,7.4,7.2c0,42.8,0,85.7,0,128.5c0,10.2,0,20.3,0,30.5c0,6.6,0,6.6-6.4,6.6H-440
		c-2.3,0-4.7,0.1-7,0.1V427z"/>
	<path d="M179,599.8l-165.8-0.1c-7.1,0-7.1,0-7.1-6.9c0-53.1,0-106.2,0-159.4c0-6.5,0-6.5,6.6-6.5H173c2,0,4-0.1,6-0.1V599.8z"/>
	<path d="M-52,599.8h-172.2c-0.1-2-0.3-3.9-0.3-5.8c0-53.5,0-107-0.1-160.5c0-4.6,0.9-6.3,6-6.3c53.8,0.2,107.6,0.1,161.5,0.1
		c1.6,0,3.3,0.2,5.2,0.2L-52,599.8z"/>
</g>
</svg>
