<svg id="thumbnails-icon" data-name="Layer 1" xmlns="http://www.w3.org/2000/svg" viewBox="0 0 626 395"><defs><style>.cls-1{fill:#6b6b6b;}</style></defs><title>thumbnails-icon</title><path class="cls-1" d="M173,0l-.12,158.68c0,13.63,0,13.64-13.42,13.64H6.46c-2.16,0-4.31.21-6.47.32Q0,86.46,0,0Z"/><path class="cls-1" d="M394.82,0c.06,13.18.16,26.37.17,39.55V173h-6.2c-53.58,0-107.16-.07-160.74.11-5,0-6.42-1.29-6.4-6.4.2-53.41.13-106.82.11-160.24,0-2.16-.19-4.32-.3-6.48Z"/><path class="cls-1" d="M626,173c-2.49-.11-5-.33-7.46-.33H459.75c-6.68,0-6.69,0-6.69-6.88Q453,82.89,453,0H626Z"/><path class="cls-1" d="M0,222l150,.13h15.5c7.41,0,7.41,0,7.41,7.18q0,64.24,0,128.48,0,15.25,0,30.49c0,6.61,0,6.62-6.41,6.62H7c-2.33,0-4.66.06-7,.1Z"/><path class="cls-1" d="M626,395l-165.84-.11c-7.09,0-7.09,0-7.09-6.94q0-79.67,0-159.35c0-6.46,0-6.48,6.59-6.48H620c2,0,4-.08,6-.12Z"/><path class="cls-1" d="M395,395H222.8c-.11-2-.32-3.9-.32-5.84q0-80.23-.11-160.47c0-4.61.93-6.3,6-6.29,53.82.18,107.65.11,161.47.13,1.63,0,3.26.16,5.2.25Z"/></svg>